<?xml version="1.0" encoding="UTF-8"?><svg xmlns="http://www.w3.org/2000/svg" viewBox="0 0 94.14 28.01"><defs><style>.d{fill:#fff;}</style></defs><g id="a"/><g id="b"><g id="c"><path class="d" d="M.14,.01C6.14,.01,27.39,.05,36.25,.01,43.66-.02,48.11,.01,68.72,.01h25.42c-1.14,.67-3,1-6,2-13.33,4.44-21.45,4.56-25.68,8.73-4.04,3.99-.43,9.22,.43,10.36,3.35,4.44,9.68,5.87,8.95,6.63-1.15,1.22-17.91-1.81-34.03-7.38-4.15-1.44-4.57-1.77-7.21-2.94-3.7-1.65-8.06-3.32-9.22-3.77C18.21,12.45-1.86,.01,.14,.01Z"/></g></g></svg>